<svg version="1.1" viewBox="0.0 0.0 960.0 720.0" fill="none" stroke="none" stroke-linecap="square" stroke-miterlimit="10" xmlns:xlink="http://www.w3.org/1999/xlink" xmlns="http://www.w3.org/2000/svg"><clipPath id="p.0"><path d="m0 0l960.0 0l0 720.0l-960.0 0l0 -720.0z" clip-rule="nonzero"/></clipPath><g clip-path="url(#p.0)"><path fill="#000000" fill-opacity="0.0" d="m0 0l960.0 0l0 720.0l-960.0 0z" fill-rule="evenodd"/><path fill="#cccccc" d="m12.281471 562.4305l0 0c0 -3.3485718 2.714548 -6.0631104 6.063114 -6.0631104l45.00763 0c1.608036 0 3.150219 0.63879395 4.2872734 1.7758789c1.1370544 1.1370239 1.7758408 2.6791992 1.7758408 4.2872314l0 24.25177c0 3.3485107 -2.7145462 6.0631104 -6.063114 6.0631104l-45.00763 0c-3.348566 0 -6.063114 -2.7145996 -6.063114 -6.0631104z" fill-rule="evenodd"/><path stroke="#000000" stroke-width="0.8556430446194225" stroke-linejoin="round" stroke-linecap="butt" d="m12.281471 562.4305l0 0c0 -3.3485718 2.714548 -6.0631104 6.063114 -6.0631104l45.00763 0c1.608036 0 3.150219 0.63879395 4.2872734 1.7758789c1.1370544 1.1370239 1.7758408 2.6791992 1.7758408 4.2872314l0 24.25177c0 3.3485107 -2.7145462 6.0631104 -6.063114 6.0631104l-45.00763 0c-3.348566 0 -6.063114 -2.7145996 -6.063114 -6.0631104z" fill-rule="evenodd"/><path fill="#000000" fill-opacity="0.0" d="m69.40956 556.60944l299.0866 0l0 35.874023l-299.0866 0z" fill-rule="evenodd"/><path fill="#000000" d="m78.581436 579.9125l0 -11.40625l4.28125 0q1.296875 0 2.078125 0.34375q0.796875 0.34375 1.25 1.0625q0.453125 0.71875 0.453125 1.515625q0 0.71875 -0.40625 1.375q-0.390625 0.640625 -1.1875 1.046875q1.03125 0.296875 1.578125 1.03125q0.5625 0.734375 0.5625 1.71875q0 0.8125 -0.34375 1.5q-0.328125 0.6875 -0.828125 1.0625q-0.5 0.375 -1.25 0.5625q-0.75 0.1875 -1.84375 0.1875l-4.34375 0zm1.5 -6.609375l2.46875 0q1.0 0 1.4375 -0.140625q0.578125 -0.171875 0.875 -0.5625q0.296875 -0.40625 0.296875 -1.0q0 -0.5625 -0.28125 -1.0q-0.265625 -0.4375 -0.78125 -0.59375q-0.5 -0.15625 -1.734375 -0.15625l-2.28125 0l0 3.453125zm0 5.265625l2.84375 0q0.734375 0 1.03125 -0.0625q0.515625 -0.09375 0.859375 -0.3125q0.359375 -0.21875 0.578125 -0.625q0.234375 -0.421875 0.234375 -0.96875q0 -0.640625 -0.328125 -1.109375q-0.328125 -0.46875 -0.90625 -0.65625q-0.578125 -0.1875 -1.671875 -0.1875l-2.640625 0l0 3.921875zm14.661438 -1.3125l1.453125 0.171875q-0.34375 1.265625 -1.265625 1.96875q-0.921875 0.703125 -2.375 0.703125q-1.8125 0 -2.875 -1.109375q-1.0625 -1.125 -1.0625 -3.140625q0 -2.078125 1.078125 -3.234375q1.078125 -1.15625 2.78125 -1.15625q1.65625 0 2.703125 1.140625q1.0625 1.125 1.0625 3.171875q0 0.125 -0.015625 0.359375l-6.15625 0q0.078125 1.375 0.765625 2.09375q0.703125 0.71875 1.734375 0.71875q0.765625 0 1.3125 -0.40625q0.546875 -0.40625 0.859375 -1.28125zm-4.59375 -2.265625l4.609375 0q-0.09375 -1.046875 -0.53125 -1.5625q-0.65625 -0.8125 -1.734375 -0.8125q-0.953125 0 -1.625 0.65625q-0.65625 0.640625 -0.71875 1.71875zm7.801178 4.921875l0 -11.40625l1.40625 0l0 4.09375q0.984375 -1.140625 2.46875 -1.140625q0.921875 0 1.59375 0.359375q0.6875 0.359375 0.96875 1.0q0.296875 0.640625 0.296875 1.859375l0 5.234375l-1.40625 0l0 -5.234375q0 -1.046875 -0.453125 -1.53125q-0.453125 -0.484375 -1.28125 -0.484375q-0.625 0 -1.171875 0.328125q-0.546875 0.328125 -0.78125 0.875q-0.234375 0.546875 -0.234375 1.53125l0 4.515625l-1.40625 0zm14.254303 -1.015625q-0.765625 0.65625 -1.5 0.9375q-0.71875 0.265625 -1.53125 0.265625q-1.375 0 -2.109375 -0.65625q-0.71875 -0.671875 -0.71875 -1.703125q0 -0.609375 0.265625 -1.109375q0.28125 -0.515625 0.71875 -0.8125q0.453125 -0.296875 1.015625 -0.453125q0.421875 -0.109375 1.25 -0.21875q1.703125 -0.203125 2.5 -0.484375q0 -0.28125 0 -0.359375q0 -0.859375 -0.390625 -1.203125q-0.53125 -0.484375 -1.59375 -0.484375q-0.984375 0 -1.46875 0.359375q-0.46875 0.34375 -0.6875 1.21875l-1.375 -0.1875q0.1875 -0.875 0.609375 -1.421875q0.4375 -0.546875 1.25 -0.828125q0.8125 -0.296875 1.875 -0.296875q1.0625 0 1.71875 0.25q0.65625 0.25 0.96875 0.625q0.3125 0.375 0.4375 0.953125q0.078125 0.359375 0.078125 1.296875l0 1.859375q0 1.953125 0.078125 2.484375q0.09375 0.515625 0.359375 0.984375l-1.46875 0q-0.21875 -0.4375 -0.28125 -1.015625zm-0.109375 -3.125q-0.765625 0.296875 -2.296875 0.515625q-0.859375 0.125 -1.21875 0.28125q-0.359375 0.15625 -0.5625 0.46875q-0.1875 0.296875 -0.1875 0.65625q0 0.5625 0.421875 0.9375q0.4375 0.375 1.25 0.375q0.8125 0 1.4375 -0.359375q0.640625 -0.359375 0.921875 -0.96875q0.234375 -0.46875 0.234375 -1.40625l0 -0.5zm5.879303 4.140625l-3.140625 -8.265625l1.484375 0l1.765625 4.953125q0.296875 0.796875 0.53125 1.65625q0.1875 -0.640625 0.515625 -1.5625l1.84375 -5.046875l1.4375 0l-3.125 8.265625l-1.3125 0zm5.6875 -9.796875l0 -1.609375l1.390625 0l0 1.609375l-1.390625 0zm0 9.796875l0 -8.265625l1.390625 0l0 8.265625l-1.390625 0zm3.009552 -4.125q0 -2.296875 1.28125 -3.40625q1.0625 -0.921875 2.59375 -0.921875q1.703125 0 2.78125 1.125q1.078125 1.109375 1.078125 3.078125q0 1.59375 -0.484375 2.515625q-0.46875 0.90625 -1.390625 1.421875q-0.90625 0.5 -1.984375 0.5q-1.734375 0 -2.8125 -1.109375q-1.0625 -1.109375 -1.0625 -3.203125zm1.4375 0q0 1.578125 0.6875 2.375q0.703125 0.78125 1.75 0.78125q1.046875 0 1.734375 -0.78125q0.6875 -0.796875 0.6875 -2.421875q0 -1.546875 -0.703125 -2.328125q-0.6875 -0.796875 -1.71875 -0.796875q-1.046875 0 -1.75 0.796875q-0.6875 0.78125 -0.6875 2.375zm7.926178 4.125l0 -8.265625l1.265625 0l0 1.25q0.484375 -0.875 0.890625 -1.15625q0.40625 -0.28125 0.890625 -0.28125q0.71875 0 1.453125 0.453125l-0.484375 1.296875q-0.515625 -0.296875 -1.03125 -0.296875q-0.453125 0 -0.828125 0.28125q-0.359375 0.265625 -0.515625 0.75q-0.234375 0.75 -0.234375 1.640625l0 4.328125l-1.40625 0zm9.92276 0l0 -11.40625l1.546875 0l5.984375 8.953125l0 -8.953125l1.453125 0l0 11.40625l-1.546875 0l-6.0 -8.96875l0 8.96875l-1.4375 0zm10.822052 -4.125q0 -2.296875 1.28125 -3.40625q1.0625 -0.921875 2.59375 -0.921875q1.703125 0 2.78125 1.125q1.078125 1.109375 1.078125 3.078125q0 1.59375 -0.484375 2.515625q-0.46875 0.90625 -1.390625 1.421875q-0.90625 0.5 -1.984375 0.5q-1.734375 0 -2.8125 -1.109375q-1.0625 -1.109375 -1.0625 -3.203125zm1.4375 0q0 1.578125 0.6875 2.375q0.703125 0.78125 1.75 0.78125q1.046875 0 1.734375 -0.78125q0.6875 -0.796875 0.6875 -2.421875q0 -1.546875 -0.703125 -2.328125q-0.6875 -0.796875 -1.71875 -0.796875q-1.046875 0 -1.75 0.796875q-0.6875 0.78125 -0.6875 2.375zm13.301178 4.125l0 -1.046875q-0.78125 1.234375 -2.3125 1.234375q-0.984375 0 -1.8125 -0.546875q-0.828125 -0.546875 -1.28125 -1.515625q-0.453125 -0.984375 -0.453125 -2.25q0 -1.234375 0.40625 -2.234375q0.421875 -1.015625 1.234375 -1.546875q0.828125 -0.546875 1.84375 -0.546875q0.75 0 1.328125 0.3125q0.59375 0.3125 0.953125 0.828125l0 -4.09375l1.40625 0l0 11.40625l-1.3125 0zm-4.421875 -4.125q0 1.59375 0.671875 2.375q0.671875 0.78125 1.578125 0.78125q0.921875 0 1.5625 -0.75q0.640625 -0.75 0.640625 -2.28125q0 -1.703125 -0.65625 -2.5q-0.65625 -0.796875 -1.609375 -0.796875q-0.9375 0 -1.5625 0.765625q-0.625 0.765625 -0.625 2.40625zm13.582428 1.46875l1.453125 0.171875q-0.34375 1.265625 -1.265625 1.96875q-0.921875 0.703125 -2.375 0.703125q-1.8125 0 -2.875 -1.109375q-1.0625 -1.125 -1.0625 -3.140625q0 -2.078125 1.078125 -3.234375q1.078125 -1.15625 2.78125 -1.15625q1.65625 0 2.703125 1.140625q1.0625 1.125 1.0625 3.171875q0 0.125 -0.015625 0.359375l-6.15625 0q0.078125 1.375 0.765625 2.09375q0.703125 0.71875 1.734375 0.71875q0.765625 0 1.3125 -0.40625q0.546875 -0.40625 0.859375 -1.28125zm-4.59375 -2.265625l4.609375 0q-0.09375 -1.046875 -0.53125 -1.5625q-0.65625 -0.8125 -1.734375 -0.8125q-0.953125 0 -1.625 0.65625q-0.65625 0.640625 -0.71875 1.71875z" fill-rule="nonzero"/><path fill="#fff2cc" d="m9.430447 627.24164l0 0c0 -9.915039 13.424406 -17.952759 29.984253 -17.952759l0 0c16.559845 0 29.98425 8.03772 29.98425 17.952759l0 0c0 9.915039 -13.424404 17.952759 -29.98425 17.952759l0 0c-16.559847 0 -29.984253 -8.03772 -29.984253 -17.952759z" fill-rule="evenodd"/><path stroke="#000000" stroke-width="0.8556430446194225" stroke-linejoin="round" stroke-linecap="butt" d="m9.430447 627.24164l0 0c0 -9.915039 13.424406 -17.952759 29.984253 -17.952759l0 0c16.559845 0 29.98425 8.03772 29.98425 17.952759l0 0c0 9.915039 -13.424404 17.952759 -29.98425 17.952759l0 0c-16.559847 0 -29.984253 -8.03772 -29.984253 -17.952759z" fill-rule="evenodd"/><path fill="#000000" fill-opacity="0.0" d="m69.40956 609.2885l299.0866 0l0 35.874023l-299.0866 0z" fill-rule="evenodd"/><path fill="#000000" d="m86.78456 628.59155l1.5 0.375q-0.46875 1.859375 -1.703125 2.84375q-1.234375 0.96875 -3.015625 0.96875q-1.84375 0 -3.0 -0.75q-1.15625 -0.75 -1.765625 -2.171875q-0.59375 -1.421875 -0.59375 -3.0625q0 -1.78125 0.671875 -3.09375q0.6875 -1.328125 1.9375 -2.015625q1.265625 -0.703125 2.765625 -0.703125q1.71875 0 2.875 0.875q1.171875 0.875 1.640625 2.453125l-1.484375 0.34375q-0.40625 -1.234375 -1.15625 -1.796875q-0.75 -0.578125 -1.90625 -0.578125q-1.3125 0 -2.203125 0.640625q-0.875 0.625 -1.234375 1.6875q-0.359375 1.0625 -0.359375 2.1875q0 1.453125 0.421875 2.546875q0.4375 1.078125 1.328125 1.625q0.890625 0.53125 1.9375 0.53125q1.265625 0 2.140625 -0.734375q0.890625 -0.734375 1.203125 -2.171875zm2.665802 -0.125q0 -2.296875 1.28125 -3.40625q1.0625 -0.921875 2.59375 -0.921875q1.703125 0 2.78125 1.125q1.078125 1.109375 1.078125 3.078125q0 1.59375 -0.484375 2.515625q-0.46875 0.90625 -1.390625 1.421875q-0.90625 0.5 -1.984375 0.5q-1.734375 0 -2.8125 -1.109375q-1.0625 -1.109375 -1.0625 -3.203125zm1.4375 0q0 1.578125 0.6875 2.375q0.703125 0.78125 1.75 0.78125q1.046875 0 1.734375 -0.78125q0.6875 -0.796875 0.6875 -2.421875q0 -1.546875 -0.703125 -2.328125q-0.6875 -0.796875 -1.71875 -0.796875q-1.046875 0 -1.75 0.796875q-0.6875 0.78125 -0.6875 2.375zm7.941803 4.125l0 -8.265625l1.25 0l0 1.15625q0.390625 -0.609375 1.03125 -0.96875q0.65625 -0.375 1.484375 -0.375q0.921875 0 1.5 0.390625q0.59375 0.375 0.828125 1.0625q0.984375 -1.453125 2.5625 -1.453125q1.21875 0 1.875 0.6875q0.671875 0.671875 0.671875 2.09375l0 5.671875l-1.390625 0l0 -5.203125q0 -0.84375 -0.140625 -1.203125q-0.140625 -0.375 -0.5 -0.59375q-0.34375 -0.234375 -0.828125 -0.234375q-0.875 0 -1.453125 0.578125q-0.578125 0.578125 -0.578125 1.859375l0 4.796875l-1.390625 0l0 -5.375q0 -0.921875 -0.34375 -1.390625q-0.34375 -0.46875 -1.125 -0.46875q-0.59375 0 -1.09375 0.3125q-0.5 0.3125 -0.734375 0.90625q-0.21875 0.59375 -0.21875 1.734375l0 4.28125l-1.40625 0zm13.276062 3.171875l0 -11.4375l1.28125 0l0 1.078125q0.453125 -0.640625 1.015625 -0.953125q0.578125 -0.3125 1.375 -0.3125q1.0625 0 1.875 0.546875q0.8125 0.546875 1.21875 1.546875q0.40625 0.984375 0.40625 2.171875q0 1.265625 -0.453125 2.28125q-0.453125 1.015625 -1.328125 1.5625q-0.859375 0.53125 -1.8125 0.53125q-0.703125 0 -1.265625 -0.296875q-0.546875 -0.296875 -0.90625 -0.75l0 4.03125l-1.40625 0zm1.265625 -7.25q0 1.59375 0.640625 2.359375q0.65625 0.75 1.578125 0.75q0.9375 0 1.59375 -0.78125q0.671875 -0.796875 0.671875 -2.453125q0 -1.578125 -0.65625 -2.359375q-0.640625 -0.796875 -1.546875 -0.796875q-0.890625 0 -1.59375 0.84375q-0.6875 0.828125 -0.6875 2.4375zm7.082428 -0.046875q0 -2.296875 1.28125 -3.40625q1.0625 -0.921875 2.59375 -0.921875q1.703125 0 2.78125 1.125q1.078125 1.109375 1.078125 3.078125q0 1.59375 -0.484375 2.515625q-0.46875 0.90625 -1.390625 1.421875q-0.90625 0.5 -1.984375 0.5q-1.734375 0 -2.8125 -1.109375q-1.0625 -1.109375 -1.0625 -3.203125zm1.4375 0q0 1.578125 0.6875 2.375q0.703125 0.78125 1.75 0.78125q1.046875 0 1.734375 -0.78125q0.6875 -0.796875 0.6875 -2.421875q0 -1.546875 -0.703125 -2.328125q-0.6875 -0.796875 -1.71875 -0.796875q-1.046875 0 -1.75 0.796875q-0.6875 0.78125 -0.6875 2.375zm7.379303 1.65625l1.390625 -0.21875q0.125 0.828125 0.65625 1.28125q0.53125 0.4375 1.484375 0.4375q0.96875 0 1.4375 -0.390625q0.46875 -0.390625 0.46875 -0.921875q0 -0.46875 -0.421875 -0.75q-0.28125 -0.1875 -1.4375 -0.46875q-1.53125 -0.390625 -2.125 -0.671875q-0.59375 -0.28125 -0.90625 -0.78125q-0.3125 -0.515625 -0.3125 -1.109375q0 -0.5625 0.25 -1.03125q0.265625 -0.46875 0.703125 -0.78125q0.328125 -0.234375 0.890625 -0.40625q0.5625 -0.171875 1.203125 -0.171875q0.96875 0 1.703125 0.28125q0.734375 0.28125 1.078125 0.765625q0.359375 0.46875 0.5 1.28125l-1.375 0.171875q-0.09375 -0.625 -0.546875 -0.984375q-0.4375 -0.359375 -1.25 -0.359375q-0.96875 0 -1.390625 0.328125q-0.40625 0.3125 -0.40625 0.734375q0 0.265625 0.171875 0.484375q0.171875 0.234375 0.53125 0.375q0.21875 0.078125 1.234375 0.359375q1.5 0.40625 2.078125 0.65625q0.59375 0.25 0.921875 0.734375q0.34375 0.484375 0.34375 1.203125q0 0.6875 -0.421875 1.3125q-0.40625 0.625 -1.171875 0.96875q-0.765625 0.328125 -1.75 0.328125q-1.609375 0 -2.453125 -0.671875q-0.84375 -0.671875 -1.078125 -1.984375zm8.546875 -7.328125l0 -1.609375l1.390625 0l0 1.609375l-1.390625 0zm0 9.796875l0 -8.265625l1.390625 0l0 8.265625l-1.390625 0zm6.587677 -1.25l0.203125 1.234375q-0.59375 0.125 -1.0625 0.125q-0.765625 0 -1.1875 -0.234375q-0.40625 -0.25 -0.578125 -0.640625q-0.171875 -0.390625 -0.171875 -1.65625l0 -4.75l-1.03125 0l0 -1.09375l1.03125 0l0 -2.046875l1.390625 -0.84375l0 2.890625l1.40625 0l0 1.09375l-1.40625 0l0 4.828125q0 0.59375 0.0625 0.765625q0.078125 0.171875 0.25 0.28125q0.171875 0.09375 0.484375 0.09375q0.234375 0 0.609375 -0.046875zm7.021698 -1.40625l1.453125 0.171875q-0.34375 1.265625 -1.265625 1.96875q-0.921875 0.703125 -2.375 0.703125q-1.8125 0 -2.875 -1.109375q-1.0625 -1.125 -1.0625 -3.140625q0 -2.078125 1.078125 -3.234375q1.078125 -1.15625 2.78125 -1.15625q1.65625 0 2.703125 1.140625q1.0625 1.125 1.0625 3.171875q0 0.125 -0.015625 0.359375l-6.15625 0q0.078125 1.375 0.765625 2.09375q0.703125 0.71875 1.734375 0.71875q0.765625 0 1.3125 -0.40625q0.546875 -0.40625 0.859375 -1.28125zm-4.59375 -2.265625l4.609375 0q-0.09375 -1.046875 -0.53125 -1.5625q-0.65625 -0.8125 -1.734375 -0.8125q-0.953125 0 -1.625 0.65625q-0.65625 0.640625 -0.71875 1.71875zm12.401001 4.921875l0 -11.40625l1.546875 0l5.984375 8.953125l0 -8.953125l1.453125 0l0 11.40625l-1.546875 0l-6.0 -8.96875l0 8.96875l-1.4375 0zm10.822052 -4.125q0 -2.296875 1.28125 -3.40625q1.0625 -0.921875 2.59375 -0.921875q1.703125 0 2.78125 1.125q1.078125 1.109375 1.078125 3.078125q0 1.59375 -0.484375 2.515625q-0.46875 0.90625 -1.390625 1.421875q-0.90625 0.5 -1.984375 0.5q-1.734375 0 -2.8125 -1.109375q-1.0625 -1.109375 -1.0625 -3.203125zm1.4375 0q0 1.578125 0.6875 2.375q0.703125 0.78125 1.75 0.78125q1.046875 0 1.734375 -0.78125q0.6875 -0.796875 0.6875 -2.421875q0 -1.546875 -0.703125 -2.328125q-0.6875 -0.796875 -1.71875 -0.796875q-1.046875 0 -1.75 0.796875q-0.6875 0.78125 -0.6875 2.375zm13.301178 4.125l0 -1.046875q-0.78125 1.234375 -2.3125 1.234375q-0.984375 0 -1.8125 -0.546875q-0.828125 -0.546875 -1.28125 -1.515625q-0.453125 -0.984375 -0.453125 -2.25q0 -1.234375 0.40625 -2.234375q0.421875 -1.015625 1.234375 -1.546875q0.828125 -0.546875 1.84375 -0.546875q0.75 0 1.328125 0.3125q0.59375 0.3125 0.953125 0.828125l0 -4.09375l1.40625 0l0 11.40625l-1.3125 0zm-4.421875 -4.125q0 1.59375 0.671875 2.375q0.671875 0.78125 1.578125 0.78125q0.921875 0 1.5625 -0.75q0.640625 -0.75 0.640625 -2.28125q0 -1.703125 -0.65625 -2.5q-0.65625 -0.796875 -1.609375 -0.796875q-0.9375 0 -1.5625 0.765625q-0.625 0.765625 -0.625 2.40625zm13.582428 1.46875l1.453125 0.171875q-0.34375 1.265625 -1.265625 1.96875q-0.921875 0.703125 -2.375 0.703125q-1.8125 0 -2.875 -1.109375q-1.0625 -1.125 -1.0625 -3.140625q0 -2.078125 1.078125 -3.234375q1.078125 -1.15625 2.78125 -1.15625q1.65625 0 2.703125 1.140625q1.0625 1.125 1.0625 3.171875q0 0.125 -0.015625 0.359375l-6.15625 0q0.078125 1.375 0.765625 2.09375q0.703125 0.71875 1.734375 0.71875q0.765625 0 1.3125 -0.40625q0.546875 -0.40625 0.859375 -1.28125zm-4.59375 -2.265625l4.609375 0q-0.09375 -1.046875 -0.53125 -1.5625q-0.65625 -0.8125 -1.734375 -0.8125q-0.953125 0 -1.625 0.65625q-0.65625 0.640625 -0.71875 1.71875z" fill-rule="nonzero"/><path fill="#000000" fill-opacity="0.0" d="m69.40956 661.7262l299.0866 0l0 35.874023l-299.0866 0z" fill-rule="evenodd"/><path fill="#000000" d="m78.643936 685.02924l0 -11.40625l3.921875 0q1.328125 0 2.03125 0.15625q0.984375 0.234375 1.671875 0.828125q0.90625 0.75 1.34375 1.9375q0.453125 1.1875 0.453125 2.71875q0 1.296875 -0.3125 2.3125q-0.296875 1.0 -0.765625 1.65625q-0.46875 0.65625 -1.046875 1.03125q-0.5625 0.375 -1.359375 0.578125q-0.796875 0.1875 -1.828125 0.1875l-4.109375 0zm1.5 -1.34375l2.4375 0q1.125 0 1.765625 -0.203125q0.65625 -0.21875 1.03125 -0.59375q0.53125 -0.546875 0.828125 -1.453125q0.3125 -0.90625 0.3125 -2.203125q0 -1.78125 -0.59375 -2.734375q-0.578125 -0.96875 -1.421875 -1.296875q-0.609375 -0.234375 -1.953125 -0.234375l-2.40625 0l0 8.71875zm15.478302 -1.3125l1.453125 0.171875q-0.34375 1.265625 -1.265625 1.96875q-0.921875 0.703125 -2.375 0.703125q-1.8125 0 -2.875 -1.109375q-1.0625 -1.125 -1.0625 -3.140625q0 -2.078125 1.078125 -3.234375q1.078125 -1.15625 2.78125 -1.15625q1.65625 0 2.703125 1.140625q1.0625 1.125 1.0625 3.171875q0 0.125 -0.015625 0.359375l-6.15625 0q0.078125 1.375 0.765625 2.09375q0.703125 0.71875 1.734375 0.71875q0.765625 0 1.3125 -0.40625q0.546875 -0.40625 0.859375 -1.28125zm-4.59375 -2.265625l4.609375 0q-0.09375 -1.046875 -0.53125 -1.5625q-0.65625 -0.8125 -1.734375 -0.8125q-0.953125 0 -1.625 0.65625q-0.65625 0.640625 -0.71875 1.71875zm13.191803 1.890625l1.390625 0.1875q-0.234375 1.421875 -1.171875 2.234375q-0.921875 0.796875 -2.28125 0.796875q-1.6875 0 -2.71875 -1.109375q-1.03125 -1.109375 -1.03125 -3.171875q0 -1.34375 0.4375 -2.34375q0.453125 -1.015625 1.359375 -1.515625q0.90625 -0.5 1.96875 -0.5q1.34375 0 2.203125 0.6875q0.859375 0.671875 1.09375 1.921875l-1.359375 0.21875q-0.203125 -0.828125 -0.703125 -1.25q-0.484375 -0.421875 -1.1875 -0.421875q-1.046875 0 -1.71875 0.765625q-0.65625 0.75 -0.65625 2.390625q0 1.671875 0.640625 2.421875q0.640625 0.75 1.65625 0.75q0.828125 0 1.375 -0.5q0.5625 -0.515625 0.703125 -1.5625zm2.0625 -1.09375q0 -2.296875 1.28125 -3.40625q1.0625 -0.921875 2.59375 -0.921875q1.703125 0 2.78125 1.125q1.078125 1.109375 1.078125 3.078125q0 1.59375 -0.484375 2.515625q-0.46875 0.90625 -1.390625 1.421875q-0.90625 0.5 -1.984375 0.5q-1.734375 0 -2.8125 -1.109375q-1.0625 -1.109375 -1.0625 -3.203125zm1.4375 0q0 1.578125 0.6875 2.375q0.703125 0.78125 1.75 0.78125q1.046875 0 1.734375 -0.78125q0.6875 -0.796875 0.6875 -2.421875q0 -1.546875 -0.703125 -2.328125q-0.6875 -0.796875 -1.71875 -0.796875q-1.046875 0 -1.75 0.796875q-0.6875 0.78125 -0.6875 2.375zm7.926178 4.125l0 -8.265625l1.265625 0l0 1.25q0.484375 -0.875 0.890625 -1.15625q0.40625 -0.28125 0.890625 -0.28125q0.71875 0 1.453125 0.453125l-0.484375 1.296875q-0.515625 -0.296875 -1.03125 -0.296875q-0.453125 0 -0.828125 0.28125q-0.359375 0.265625 -0.515625 0.75q-0.234375 0.75 -0.234375 1.640625l0 4.328125l-1.40625 0zm10.713562 -1.015625q-0.765625 0.65625 -1.5 0.9375q-0.71875 0.265625 -1.53125 0.265625q-1.375 0 -2.109375 -0.65625q-0.71875 -0.671875 -0.71875 -1.703125q0 -0.609375 0.265625 -1.109375q0.28125 -0.515625 0.71875 -0.8125q0.453125 -0.296875 1.015625 -0.453125q0.421875 -0.109375 1.25 -0.21875q1.703125 -0.203125 2.5 -0.484375q0 -0.28125 0 -0.359375q0 -0.859375 -0.390625 -1.203125q-0.53125 -0.484375 -1.59375 -0.484375q-0.984375 0 -1.46875 0.359375q-0.46875 0.34375 -0.6875 1.21875l-1.375 -0.1875q0.1875 -0.875 0.609375 -1.421875q0.4375 -0.546875 1.25 -0.828125q0.8125 -0.296875 1.875 -0.296875q1.0625 0 1.71875 0.25q0.65625 0.25 0.96875 0.625q0.3125 0.375 0.4375 0.953125q0.078125 0.359375 0.078125 1.296875l0 1.859375q0 1.953125 0.078125 2.484375q0.09375 0.515625 0.359375 0.984375l-1.46875 0q-0.21875 -0.4375 -0.28125 -1.015625zm-0.109375 -3.125q-0.765625 0.296875 -2.296875 0.515625q-0.859375 0.125 -1.21875 0.28125q-0.359375 0.15625 -0.5625 0.46875q-0.1875 0.296875 -0.1875 0.65625q0 0.5625 0.421875 0.9375q0.4375 0.375 1.25 0.375q0.8125 0 1.4375 -0.359375q0.640625 -0.359375 0.921875 -0.96875q0.234375 -0.46875 0.234375 -1.40625l0 -0.5zm6.644928 2.890625l0.203125 1.234375q-0.59375 0.125 -1.0625 0.125q-0.765625 0 -1.1875 -0.234375q-0.40625 -0.25 -0.578125 -0.640625q-0.171875 -0.390625 -0.171875 -1.65625l0 -4.75l-1.03125 0l0 -1.09375l1.03125 0l0 -2.046875l1.390625 -0.84375l0 2.890625l1.40625 0l0 1.09375l-1.40625 0l0 4.828125q0 0.59375 0.0625 0.765625q0.078125 0.171875 0.25 0.28125q0.171875 0.09375 0.484375 0.09375q0.234375 0 0.609375 -0.046875zm0.849823 -2.875q0 -2.296875 1.28125 -3.40625q1.0625 -0.921875 2.59375 -0.921875q1.703125 0 2.78125 1.125q1.078125 1.109375 1.078125 3.078125q0 1.59375 -0.484375 2.515625q-0.46875 0.90625 -1.390625 1.421875q-0.90625 0.5 -1.984375 0.5q-1.734375 0 -2.8125 -1.109375q-1.0625 -1.109375 -1.0625 -3.203125zm1.4375 0q0 1.578125 0.6875 2.375q0.703125 0.78125 1.75 0.78125q1.046875 0 1.734375 -0.78125q0.6875 -0.796875 0.6875 -2.421875q0 -1.546875 -0.703125 -2.328125q-0.6875 -0.796875 -1.71875 -0.796875q-1.046875 0 -1.75 0.796875q-0.6875 0.78125 -0.6875 2.375zm7.926178 4.125l0 -8.265625l1.265625 0l0 1.25q0.484375 -0.875 0.890625 -1.15625q0.40625 -0.28125 0.890625 -0.28125q0.71875 0 1.453125 0.453125l-0.484375 1.296875q-0.515625 -0.296875 -1.03125 -0.296875q-0.453125 0 -0.828125 0.28125q-0.359375 0.265625 -0.515625 0.75q-0.234375 0.75 -0.234375 1.640625l0 4.328125l-1.40625 0zm9.92276 0l0 -11.40625l1.546875 0l5.984375 8.953125l0 -8.953125l1.453125 0l0 11.40625l-1.546875 0l-6.0 -8.96875l0 8.96875l-1.4375 0zm10.822052 -4.125q0 -2.296875 1.28125 -3.40625q1.0625 -0.921875 2.59375 -0.921875q1.703125 0 2.78125 1.125q1.078125 1.109375 1.078125 3.078125q0 1.59375 -0.484375 2.515625q-0.46875 0.90625 -1.390625 1.421875q-0.90625 0.5 -1.984375 0.5q-1.734375 0 -2.8125 -1.109375q-1.0625 -1.109375 -1.0625 -3.203125zm1.4375 0q0 1.578125 0.6875 2.375q0.703125 0.78125 1.75 0.78125q1.046875 0 1.734375 -0.78125q0.6875 -0.796875 0.6875 -2.421875q0 -1.546875 -0.703125 -2.328125q-0.6875 -0.796875 -1.71875 -0.796875q-1.046875 0 -1.75 0.796875q-0.6875 0.78125 -0.6875 2.375zm13.301178 4.125l0 -1.046875q-0.78125 1.234375 -2.3125 1.234375q-0.984375 0 -1.8125 -0.546875q-0.828125 -0.546875 -1.28125 -1.515625q-0.453125 -0.984375 -0.453125 -2.25q0 -1.234375 0.40625 -2.234375q0.421875 -1.015625 1.234375 -1.546875q0.828125 -0.546875 1.84375 -0.546875q0.75 0 1.328125 0.3125q0.59375 0.3125 0.953125 0.828125l0 -4.09375l1.40625 0l0 11.40625l-1.3125 0zm-4.421875 -4.125q0 1.59375 0.671875 2.375q0.671875 0.78125 1.578125 0.78125q0.921875 0 1.5625 -0.75q0.640625 -0.75 0.640625 -2.28125q0 -1.703125 -0.65625 -2.5q-0.65625 -0.796875 -1.609375 -0.796875q-0.9375 0 -1.5625 0.765625q-0.625 0.765625 -0.625 2.40625zm13.582428 1.46875l1.453125 0.171875q-0.34375 1.265625 -1.265625 1.96875q-0.921875 0.703125 -2.375 0.703125q-1.8125 0 -2.875 -1.109375q-1.0625 -1.125 -1.0625 -3.140625q0 -2.078125 1.078125 -3.234375q1.078125 -1.15625 2.78125 -1.15625q1.65625 0 2.703125 1.140625q1.0625 1.125 1.0625 3.171875q0 0.125 -0.015625 0.359375l-6.15625 0q0.078125 1.375 0.765625 2.09375q0.703125 0.71875 1.734375 0.71875q0.765625 0 1.3125 -0.40625q0.546875 -0.40625 0.859375 -1.28125zm-4.59375 -2.265625l4.609375 0q-0.09375 -1.046875 -0.53125 -1.5625q-0.65625 -0.8125 -1.734375 -0.8125q-0.953125 0 -1.625 0.65625q-0.65625 0.640625 -0.71875 1.71875z" fill-rule="nonzero"/><path fill="#cccccc" d="m377.00787 288.34415l0 0c0 -8.787445 7.1236267 -15.911072 15.911072 -15.911072l115.32745 0c4.2199097 0 8.266907 1.6763306 11.2508545 4.660248c2.9838867 2.9838867 4.6602173 7.030945 4.6602173 11.250824l0 63.642426c0 8.787445 -7.123596 15.911072 -15.911072 15.911072l-115.32745 0c-8.787445 0 -15.911072 -7.1236267 -15.911072 -15.911072z" fill-rule="evenodd"/><path stroke="#000000" stroke-width="1.0" stroke-linejoin="round" stroke-linecap="butt" d="m377.00787 288.34415l0 0c0 -8.787445 7.1236267 -15.911072 15.911072 -15.911072l115.32745 0c4.2199097 0 8.266907 1.6763306 11.2508545 4.660248c2.9838867 2.9838867 4.6602173 7.030945 4.6602173 11.250824l0 63.642426c0 8.787445 -7.123596 15.911072 -15.911072 15.911072l-115.32745 0c-8.787445 0 -15.911072 -7.1236267 -15.911072 -15.911072z" fill-rule="evenodd"/><path fill="#000000" d="m407.92825 316.08536l0 -13.359375l1.8125 0l7.015625 10.484375l0 -10.484375l1.6875 0l0 13.359375l-1.8125 0l-7.015625 -10.5l0 10.5l-1.6875 0zm19.59793 -1.1875q-0.921875 0.765625 -1.765625 1.09375q-0.828125 0.3125 -1.796875 0.3125q-1.59375 0 -2.453125 -0.78125q-0.859375 -0.78125 -0.859375 -1.984375q0 -0.71875 0.328125 -1.296875q0.328125 -0.59375 0.84375 -0.9375q0.53125 -0.359375 1.1875 -0.546875q0.46875 -0.125 1.453125 -0.25q1.984375 -0.234375 2.921875 -0.5625q0.015625 -0.34375 0.015625 -0.421875q0 -1.0 -0.46875 -1.421875q-0.625 -0.546875 -1.875 -0.546875q-1.15625 0 -1.703125 0.40625q-0.546875 0.40625 -0.8125 1.421875l-1.609375 -0.21875q0.21875 -1.015625 0.71875 -1.640625q0.5 -0.640625 1.453125 -0.984375q0.953125 -0.34375 2.1875 -0.34375q1.25 0 2.015625 0.296875q0.78125 0.28125 1.140625 0.734375q0.375 0.4375 0.515625 1.109375q0.078125 0.421875 0.078125 1.515625l0 2.1875q0 2.28125 0.109375 2.890625q0.109375 0.59375 0.40625 1.15625l-1.703125 0q-0.265625 -0.515625 -0.328125 -1.1875zm-0.140625 -3.671875q-0.890625 0.375 -2.671875 0.625q-1.015625 0.140625 -1.4375 0.328125q-0.421875 0.1875 -0.65625 0.53125q-0.21875 0.34375 -0.21875 0.78125q0 0.65625 0.5 1.09375q0.5 0.4375 1.453125 0.4375q0.9375 0 1.671875 -0.40625q0.75 -0.421875 1.09375 -1.140625q0.265625 -0.5625 0.265625 -1.640625l0 -0.609375zm6.8913574 4.859375l-3.6875 -9.671875l1.734375 0l2.078125 5.796875q0.328125 0.9375 0.625 1.9375q0.203125 -0.765625 0.609375 -1.828125l2.140625 -5.90625l1.6875 0l-3.65625 9.671875l-1.53125 0zm6.640625 -11.46875l0 -1.890625l1.640625 0l0 1.890625l-1.640625 0zm0 11.46875l0 -9.671875l1.640625 0l0 9.671875l-1.640625 0zm3.832306 0.796875l1.59375 0.234375q0.109375 0.75 0.5625 1.078125q0.609375 0.453125 1.671875 0.453125q1.140625 0 1.75 -0.453125q0.625 -0.453125 0.84375 -1.265625q0.125 -0.5 0.109375 -2.109375q-1.0625 1.265625 -2.671875 1.265625q-2.0 0 -3.09375 -1.4375q-1.09375 -1.4375 -1.09375 -3.453125q0 -1.390625 0.5 -2.5625q0.515625 -1.171875 1.453125 -1.796875q0.953125 -0.640625 2.25 -0.640625q1.703125 0 2.8125 1.375l0 -1.15625l1.515625 0l0 8.359375q0 2.265625 -0.46875 3.203125q-0.453125 0.9375 -1.453125 1.484375q-0.984375 0.546875 -2.453125 0.546875q-1.71875 0 -2.796875 -0.78125q-1.0625 -0.765625 -1.03125 -2.34375zm1.359375 -5.8125q0 1.90625 0.75 2.78125q0.765625 0.875 1.90625 0.875q1.125 0 1.890625 -0.859375q0.765625 -0.875 0.765625 -2.734375q0 -1.78125 -0.796875 -2.671875q-0.78125 -0.90625 -1.890625 -0.90625q-1.09375 0 -1.859375 0.890625q-0.765625 0.875 -0.765625 2.625zm15.641357 3.828125q-0.921875 0.765625 -1.765625 1.09375q-0.828125 0.3125 -1.796875 0.3125q-1.59375 0 -2.453125 -0.78125q-0.859375 -0.78125 -0.859375 -1.984375q0 -0.71875 0.328125 -1.296875q0.328125 -0.59375 0.84375 -0.9375q0.53125 -0.359375 1.1875 -0.546875q0.46875 -0.125 1.453125 -0.25q1.984375 -0.234375 2.921875 -0.5625q0.015625 -0.34375 0.015625 -0.421875q0 -1.0 -0.46875 -1.421875q-0.625 -0.546875 -1.875 -0.546875q-1.15625 0 -1.703125 0.40625q-0.546875 0.40625 -0.8125 1.421875l-1.609375 -0.21875q0.21875 -1.015625 0.71875 -1.640625q0.5 -0.640625 1.453125 -0.984375q0.953125 -0.34375 2.1875 -0.34375q1.25 0 2.015625 0.296875q0.78125 0.28125 1.140625 0.734375q0.375 0.4375 0.515625 1.109375q0.078125 0.421875 0.078125 1.515625l0 2.1875q0 2.28125 0.109375 2.890625q0.109375 0.59375 0.40625 1.15625l-1.703125 0q-0.265625 -0.515625 -0.328125 -1.1875zm-0.140625 -3.671875q-0.890625 0.375 -2.671875 0.625q-1.015625 0.140625 -1.4375 0.328125q-0.421875 0.1875 -0.65625 0.53125q-0.21875 0.34375 -0.21875 0.78125q0 0.65625 0.5 1.09375q0.5 0.4375 1.453125 0.4375q0.9375 0 1.671875 -0.40625q0.75 -0.421875 1.09375 -1.140625q0.265625 -0.5625 0.265625 -1.640625l0 -0.609375zm7.781952 3.390625l0.234375 1.453125q-0.6875 0.140625 -1.234375 0.140625q-0.890625 0 -1.390625 -0.28125q-0.484375 -0.28125 -0.6875 -0.734375q-0.203125 -0.46875 -0.203125 -1.9375l0 -5.578125l-1.203125 0l0 -1.265625l1.203125 0l0 -2.390625l1.625 -0.984375l0 3.375l1.65625 0l0 1.265625l-1.65625 0l0 5.671875q0 0.6875 0.078125 0.890625q0.09375 0.203125 0.28125 0.328125q0.203125 0.109375 0.578125 0.109375q0.265625 0 0.71875 -0.0625zm1.6051941 -10.0l0 -1.890625l1.640625 0l0 1.890625l-1.640625 0zm0 11.46875l0 -9.671875l1.640625 0l0 9.671875l-1.640625 0zm3.535431 -4.84375q0 -2.6875 1.484375 -3.96875q1.25 -1.078125 3.046875 -1.078125q2.0 0 3.265625 1.3125q1.265625 1.296875 1.265625 3.609375q0 1.859375 -0.5625 2.9375q-0.5625 1.0625 -1.640625 1.65625q-1.0625 0.59375 -2.328125 0.59375q-2.03125 0 -3.28125 -1.296875q-1.25 -1.3125 -1.25 -3.765625zm1.6875 0q0 1.859375 0.796875 2.796875q0.8125 0.921875 2.046875 0.921875q1.21875 0 2.03125 -0.921875q0.8125 -0.9375 0.8125 -2.84375q0 -1.796875 -0.8125 -2.71875q-0.8125 -0.921875 -2.03125 -0.921875q-1.234375 0 -2.046875 0.921875q-0.796875 0.90625 -0.796875 2.765625zm9.297607 4.84375l0 -9.671875l1.46875 0l0 1.375q1.0625 -1.59375 3.078125 -1.59375q0.875 0 1.609375 0.3125q0.734375 0.3125 1.09375 0.828125q0.375 0.5 0.515625 1.203125q0.09375 0.453125 0.09375 1.59375l0 5.953125l-1.640625 0l0 -5.890625q0 -1.0 -0.203125 -1.484375q-0.1875 -0.5 -0.671875 -0.796875q-0.484375 -0.296875 -1.140625 -0.296875q-1.046875 0 -1.8125 0.671875q-0.75 0.65625 -0.75 2.515625l0 5.28125l-1.640625 0z" fill-rule="nonzero"/><path fill="#000000" d="m416.44144 336.96536l0 -9.546875l4.234375 0q1.265625 0 1.921875 0.265625q0.671875 0.25 1.0625 0.90625q0.40625 0.65625 0.40625 1.4375q0 1.015625 -0.65625 1.71875q-0.65625 0.6875 -2.03125 0.875q0.5 0.25 0.765625 0.484375q0.546875 0.5 1.046875 1.265625l1.65625 2.59375l-1.578125 0l-1.265625 -1.984375q-0.5625 -0.859375 -0.921875 -1.3125q-0.34375 -0.453125 -0.640625 -0.640625q-0.28125 -0.1875 -0.5625 -0.25q-0.21875 -0.046875 -0.703125 -0.046875l-1.46875 0l0 4.234375l-1.265625 0zm1.265625 -5.328125l2.71875 0q0.859375 0 1.34375 -0.171875q0.484375 -0.1875 0.734375 -0.578125q0.265625 -0.390625 0.265625 -0.859375q0 -0.671875 -0.5 -1.109375q-0.484375 -0.4375 -1.546875 -0.4375l-3.015625 0l0 3.15625zm7.7501526 1.875q0 -1.921875 1.078125 -2.84375q0.890625 -0.765625 2.171875 -0.765625q1.421875 0 2.328125 0.9375q0.90625 0.921875 0.90625 2.578125q0 1.328125 -0.40625 2.09375q-0.390625 0.765625 -1.15625 1.1875q-0.765625 0.421875 -1.671875 0.421875q-1.453125 0 -2.359375 -0.921875q-0.890625 -0.9375 -0.890625 -2.6875zm1.203125 0q0 1.328125 0.578125 1.984375q0.59375 0.65625 1.46875 0.65625q0.875 0 1.453125 -0.65625q0.578125 -0.671875 0.578125 -2.03125q0 -1.28125 -0.59375 -1.9375q-0.578125 -0.65625 -1.4375 -0.65625q-0.875 0 -1.46875 0.65625q-0.578125 0.65625 -0.578125 1.984375zm11.178101 3.453125l0 -1.015625q-0.8125 1.171875 -2.1875 1.171875q-0.609375 0 -1.140625 -0.234375q-0.53125 -0.234375 -0.796875 -0.578125q-0.25 -0.359375 -0.359375 -0.875q-0.0625 -0.34375 -0.0625 -1.09375l0 -4.28125l1.171875 0l0 3.828125q0 0.921875 0.0625 1.234375q0.109375 0.46875 0.46875 0.734375q0.359375 0.25 0.890625 0.25q0.515625 0 0.984375 -0.265625q0.46875 -0.265625 0.65625 -0.734375q0.1875 -0.46875 0.1875 -1.34375l0 -3.703125l1.171875 0l0 6.90625l-1.046875 0zm5.4437256 -1.046875l0.171875 1.03125q-0.5 0.109375 -0.890625 0.109375q-0.640625 0 -1.0 -0.203125q-0.34375 -0.203125 -0.484375 -0.53125q-0.140625 -0.328125 -0.140625 -1.390625l0 -3.96875l-0.859375 0l0 -0.90625l0.859375 0l0 -1.71875l1.171875 -0.703125l0 2.421875l1.171875 0l0 0.90625l-1.171875 0l0 4.046875q0 0.5 0.046875 0.640625q0.0625 0.140625 0.203125 0.234375q0.140625 0.078125 0.40625 0.078125q0.203125 0 0.515625 -0.046875zm5.874878 -1.171875l1.203125 0.140625q-0.28125 1.0625 -1.0625 1.65625q-0.765625 0.578125 -1.96875 0.578125q-1.515625 0 -2.40625 -0.9375q-0.890625 -0.9375 -0.890625 -2.609375q0 -1.75 0.890625 -2.703125q0.90625 -0.96875 2.34375 -0.96875q1.390625 0 2.265625 0.9375q0.875 0.9375 0.875 2.65625q0 0.109375 0 0.3125l-5.15625 0q0.0625 1.140625 0.640625 1.75q0.578125 0.59375 1.4375 0.59375q0.65625 0 1.109375 -0.328125q0.453125 -0.34375 0.71875 -1.078125zm-3.84375 -1.90625l3.859375 0q-0.078125 -0.859375 -0.4375 -1.296875q-0.5625 -0.6875 -1.453125 -0.6875q-0.8125 0 -1.359375 0.546875q-0.546875 0.53125 -0.609375 1.4375zm6.8499756 -1.453125l0 -1.328125l1.328125 0l0 1.328125l-1.328125 0zm0 5.578125l0 -1.328125l1.328125 0l0 1.328125l-1.328125 0zm9.32785 2.8125q-0.984375 -1.234375 -1.65625 -2.875q-0.65625 -1.640625 -0.65625 -3.390625q0 -1.546875 0.5 -2.96875q0.578125 -1.640625 1.8125 -3.28125l0.828125 0q-0.78125 1.359375 -1.03125 1.9375q-0.40625 0.890625 -0.625 1.875q-0.28125 1.21875 -0.28125 2.4375q0 3.140625 1.9375 6.265625l-0.828125 0zm3.6727295 -7.984375q-0.734375 -0.265625 -1.09375 -0.765625q-0.34375 -0.5 -0.34375 -1.1875q0 -1.03125 0.75 -1.734375q0.75 -0.71875 1.984375 -0.71875q1.25 0 2.015625 0.734375q0.765625 0.71875 0.765625 1.75q0 0.671875 -0.359375 1.171875q-0.34375 0.484375 -1.046875 0.75q0.875 0.28125 1.328125 0.921875q0.46875 0.640625 0.46875 1.515625q0 1.234375 -0.875 2.0625q-0.859375 0.828125 -2.265625 0.828125q-1.421875 0 -2.28125 -0.828125q-0.859375 -0.84375 -0.859375 -2.09375q0 -0.921875 0.46875 -1.546875q0.46875 -0.640625 1.34375 -0.859375zm-0.234375 -1.984375q0 0.671875 0.4375 1.109375q0.4375 0.421875 1.125 0.421875q0.671875 0 1.109375 -0.421875q0.4375 -0.421875 0.4375 -1.046875q0 -0.640625 -0.453125 -1.078125q-0.4375 -0.4375 -1.109375 -0.4375q-0.671875 0 -1.109375 0.4375q-0.4375 0.421875 -0.4375 1.015625zm-0.375 4.40625q0 0.5 0.234375 0.96875q0.234375 0.46875 0.703125 0.734375q0.46875 0.25 1.015625 0.25q0.828125 0 1.375 -0.53125q0.546875 -0.546875 0.546875 -1.390625q0 -0.84375 -0.5625 -1.390625q-0.5625 -0.5625 -1.40625 -0.5625q-0.828125 0 -1.375 0.546875q-0.53125 0.546875 -0.53125 1.375zm6.8499756 2.75l0 -1.328125l1.328125 0l0 1.328125q0 0.734375 -0.265625 1.1875q-0.25 0.453125 -0.8125 0.703125l-0.328125 -0.5q0.375 -0.171875 0.546875 -0.484375q0.171875 -0.3125 0.1875 -0.90625l-0.65625 0zm4.874878 -5.171875q-0.734375 -0.265625 -1.09375 -0.765625q-0.34375 -0.5 -0.34375 -1.1875q0 -1.03125 0.75 -1.734375q0.75 -0.71875 1.984375 -0.71875q1.25 0 2.015625 0.734375q0.765625 0.71875 0.765625 1.75q0 0.671875 -0.359375 1.171875q-0.34375 0.484375 -1.046875 0.75q0.875 0.28125 1.328125 0.921875q0.46875 0.640625 0.46875 1.515625q0 1.234375 -0.875 2.0625q-0.859375 0.828125 -2.265625 0.828125q-1.421875 0 -2.28125 -0.828125q-0.859375 -0.84375 -0.859375 -2.09375q0 -0.921875 0.46875 -1.546875q0.46875 -0.640625 1.34375 -0.859375zm-0.234375 -1.984375q0 0.671875 0.4375 1.109375q0.4375 0.421875 1.125 0.421875q0.671875 0 1.109375 -0.421875q0.4375 -0.421875 0.4375 -1.046875q0 -0.640625 -0.453125 -1.078125q-0.4375 -0.4375 -1.109375 -0.4375q-0.671875 0 -1.109375 0.4375q-0.4375 0.421875 -0.4375 1.015625zm-0.375 4.40625q0 0.5 0.234375 0.96875q0.234375 0.46875 0.703125 0.734375q0.46875 0.25 1.015625 0.25q0.828125 0 1.375 -0.53125q0.546875 -0.546875 0.546875 -1.390625q0 -0.84375 -0.5625 -1.390625q-0.5625 -0.5625 -1.40625 -0.5625q-0.828125 0 -1.375 0.546875q-0.53125 0.546875 -0.53125 1.375zm7.3031006 5.5625l-0.828125 0q1.9375 -3.125 1.9375 -6.265625q0 -1.21875 -0.28125 -2.421875q-0.21875 -0.984375 -0.609375 -1.875q-0.265625 -0.59375 -1.046875 -1.953125l0.828125 0q1.234375 1.640625 1.8125 3.28125q0.5 1.421875 0.5 2.96875q0 1.75 -0.671875 3.390625q-0.671875 1.640625 -1.640625 2.875z" fill-rule="nonzero"/><path fill="#9fc5e8" d="m12.281028 682.71655l11.426772 -20.979004l34.28031 0l11.426773 20.979004l-11.426773 20.979004l-34.28031 0z" fill-rule="evenodd"/><path stroke="#000000" stroke-width="1.0" stroke-linejoin="round" stroke-linecap="butt" d="m12.281028 682.71655l11.426772 -20.979004l34.28031 0l11.426773 20.979004l-11.426773 20.979004l-34.28031 0z" fill-rule="evenodd"/></g></svg>